<mxfile host="app.diagrams.net" modified="2024-07-13T18:40:01.862Z" agent="Mozilla/5.0 (X11; Ubuntu; Linux x86_64; rv:127.0) Gecko/20100101 Firefox/127.0" etag="q_VZ3ELA1keM-ew12dU3" version="24.6.4" type="github">
  <diagram name="Page-1" id="KtNwl-2Aqr7qp69pBfpQ">
    <mxGraphModel dx="5456" dy="3200" grid="1" gridSize="10" guides="1" tooltips="1" connect="1" arrows="1" fold="1" page="1" pageScale="1" pageWidth="850" pageHeight="1100" math="0" shadow="0">
      <root>
        <mxCell id="0" />
        <mxCell id="1" parent="0" />
        <mxCell id="1eltRr7qgs7_-D9prCkm-36" value="" style="rounded=0;whiteSpace=wrap;html=1;" parent="1" vertex="1">
          <mxGeometry x="1245" y="120" width="1050" height="520" as="geometry" />
        </mxCell>
        <mxCell id="1eltRr7qgs7_-D9prCkm-5" value="" style="rounded=0;orthogonalLoop=1;jettySize=auto;html=1;flowAnimation=1;" parent="1" source="1eltRr7qgs7_-D9prCkm-3" target="1eltRr7qgs7_-D9prCkm-4" edge="1">
          <mxGeometry relative="1" as="geometry" />
        </mxCell>
        <mxCell id="1eltRr7qgs7_-D9prCkm-9" value="" style="rounded=0;orthogonalLoop=1;jettySize=auto;html=1;flowAnimation=1;" parent="1" source="1eltRr7qgs7_-D9prCkm-3" target="1eltRr7qgs7_-D9prCkm-8" edge="1">
          <mxGeometry relative="1" as="geometry" />
        </mxCell>
        <mxCell id="1eltRr7qgs7_-D9prCkm-3" value="&lt;div&gt;Bus owner&lt;/div&gt;&lt;div&gt;&lt;br&gt;&lt;/div&gt;" style="shape=umlActor;verticalLabelPosition=bottom;verticalAlign=top;html=1;outlineConnect=0;" parent="1" vertex="1">
          <mxGeometry x="110" y="220" width="30" height="60" as="geometry" />
        </mxCell>
        <mxCell id="1eltRr7qgs7_-D9prCkm-4" value="Register the Bus" style="rounded=1;whiteSpace=wrap;html=1;verticalAlign=top;" parent="1" vertex="1">
          <mxGeometry x="330" y="80" width="120" height="60" as="geometry" />
        </mxCell>
        <mxCell id="1eltRr7qgs7_-D9prCkm-8" value="Update Bus details" style="rounded=1;whiteSpace=wrap;html=1;verticalAlign=top;" parent="1" vertex="1">
          <mxGeometry x="330" y="170" width="120" height="60" as="geometry" />
        </mxCell>
        <mxCell id="1eltRr7qgs7_-D9prCkm-10" value="" style="rounded=0;orthogonalLoop=1;jettySize=auto;html=1;flowAnimation=1;" parent="1" source="1eltRr7qgs7_-D9prCkm-12" target="1eltRr7qgs7_-D9prCkm-13" edge="1">
          <mxGeometry relative="1" as="geometry" />
        </mxCell>
        <mxCell id="1eltRr7qgs7_-D9prCkm-11" value="" style="rounded=0;orthogonalLoop=1;jettySize=auto;html=1;flowAnimation=1;" parent="1" source="1eltRr7qgs7_-D9prCkm-12" target="1eltRr7qgs7_-D9prCkm-14" edge="1">
          <mxGeometry relative="1" as="geometry" />
        </mxCell>
        <mxCell id="1eltRr7qgs7_-D9prCkm-12" value="Driver" style="shape=umlActor;verticalLabelPosition=bottom;verticalAlign=top;html=1;outlineConnect=0;" parent="1" vertex="1">
          <mxGeometry x="110" y="560" width="30" height="60" as="geometry" />
        </mxCell>
        <mxCell id="1eltRr7qgs7_-D9prCkm-13" value="Create a Reservation" style="rounded=1;whiteSpace=wrap;html=1;verticalAlign=top;" parent="1" vertex="1">
          <mxGeometry x="330" y="420" width="120" height="60" as="geometry" />
        </mxCell>
        <mxCell id="1eltRr7qgs7_-D9prCkm-14" value="Update a Reservation" style="rounded=1;whiteSpace=wrap;html=1;verticalAlign=top;" parent="1" vertex="1">
          <mxGeometry x="330" y="510" width="120" height="60" as="geometry" />
        </mxCell>
        <mxCell id="1eltRr7qgs7_-D9prCkm-17" value="" style="rounded=0;orthogonalLoop=1;jettySize=auto;html=1;flowAnimation=1;" parent="1" source="1eltRr7qgs7_-D9prCkm-19" target="1eltRr7qgs7_-D9prCkm-20" edge="1">
          <mxGeometry relative="1" as="geometry" />
        </mxCell>
        <mxCell id="1eltRr7qgs7_-D9prCkm-18" value="" style="rounded=0;orthogonalLoop=1;jettySize=auto;html=1;flowAnimation=1;" parent="1" source="1eltRr7qgs7_-D9prCkm-19" target="1eltRr7qgs7_-D9prCkm-21" edge="1">
          <mxGeometry relative="1" as="geometry" />
        </mxCell>
        <mxCell id="1eltRr7qgs7_-D9prCkm-19" value="Passenger" style="shape=umlActor;verticalLabelPosition=bottom;verticalAlign=top;html=1;outlineConnect=0;" parent="1" vertex="1">
          <mxGeometry x="100" y="970" width="30" height="60" as="geometry" />
        </mxCell>
        <mxCell id="1eltRr7qgs7_-D9prCkm-20" value="Create a Reservation" style="rounded=1;whiteSpace=wrap;html=1;verticalAlign=top;" parent="1" vertex="1">
          <mxGeometry x="320" y="830" width="120" height="60" as="geometry" />
        </mxCell>
        <mxCell id="1eltRr7qgs7_-D9prCkm-21" value="Cancel a Reservation" style="rounded=1;whiteSpace=wrap;html=1;verticalAlign=top;" parent="1" vertex="1">
          <mxGeometry x="320" y="940" width="120" height="60" as="geometry" />
        </mxCell>
        <mxCell id="1eltRr7qgs7_-D9prCkm-22" value="Cancel a Reservation" style="rounded=1;whiteSpace=wrap;html=1;verticalAlign=top;" parent="1" vertex="1">
          <mxGeometry x="320" y="640" width="120" height="60" as="geometry" />
        </mxCell>
        <mxCell id="1eltRr7qgs7_-D9prCkm-23" value="" style="rounded=0;orthogonalLoop=1;jettySize=auto;html=1;flowAnimation=1;" parent="1" source="1eltRr7qgs7_-D9prCkm-12" target="1eltRr7qgs7_-D9prCkm-22" edge="1">
          <mxGeometry relative="1" as="geometry">
            <mxPoint x="140" y="677" as="sourcePoint" />
          </mxGeometry>
        </mxCell>
        <mxCell id="1eltRr7qgs7_-D9prCkm-24" value="Only future bookings he created" style="shape=callout;whiteSpace=wrap;html=1;perimeter=calloutPerimeter;size=30;position=0.1;position2=0;base=20;" parent="1" vertex="1">
          <mxGeometry x="440" y="580" width="130" height="70" as="geometry" />
        </mxCell>
        <mxCell id="1eltRr7qgs7_-D9prCkm-25" value="Only future bookings he created" style="shape=callout;whiteSpace=wrap;html=1;perimeter=calloutPerimeter;size=30;position=0.1;position2=0;base=20;" parent="1" vertex="1">
          <mxGeometry x="440" y="890" width="130" height="70" as="geometry" />
        </mxCell>
        <mxCell id="1eltRr7qgs7_-D9prCkm-26" value="" style="rounded=0;orthogonalLoop=1;jettySize=auto;html=1;flowAnimation=1;" parent="1" source="1eltRr7qgs7_-D9prCkm-19" target="1eltRr7qgs7_-D9prCkm-27" edge="1">
          <mxGeometry relative="1" as="geometry">
            <mxPoint x="130" y="1088" as="sourcePoint" />
          </mxGeometry>
        </mxCell>
        <mxCell id="1eltRr7qgs7_-D9prCkm-27" value="Write a review per reservtion" style="rounded=1;whiteSpace=wrap;html=1;verticalAlign=top;" parent="1" vertex="1">
          <mxGeometry x="320" y="1030" width="120" height="60" as="geometry" />
        </mxCell>
        <mxCell id="1eltRr7qgs7_-D9prCkm-28" value="" style="rounded=0;orthogonalLoop=1;jettySize=auto;html=1;flowAnimation=1;" parent="1" source="1eltRr7qgs7_-D9prCkm-30" target="1eltRr7qgs7_-D9prCkm-31" edge="1">
          <mxGeometry relative="1" as="geometry" />
        </mxCell>
        <mxCell id="1eltRr7qgs7_-D9prCkm-29" value="" style="rounded=0;orthogonalLoop=1;jettySize=auto;html=1;flowAnimation=1;" parent="1" source="1eltRr7qgs7_-D9prCkm-30" target="1eltRr7qgs7_-D9prCkm-32" edge="1">
          <mxGeometry relative="1" as="geometry" />
        </mxCell>
        <mxCell id="1eltRr7qgs7_-D9prCkm-30" value="System Operator" style="shape=umlActor;verticalLabelPosition=bottom;verticalAlign=top;html=1;outlineConnect=0;" parent="1" vertex="1">
          <mxGeometry x="100" y="1330" width="30" height="60" as="geometry" />
        </mxCell>
        <mxCell id="1eltRr7qgs7_-D9prCkm-31" value="Manage Refunds" style="rounded=1;whiteSpace=wrap;html=1;verticalAlign=top;" parent="1" vertex="1">
          <mxGeometry x="320" y="1190" width="120" height="60" as="geometry" />
        </mxCell>
        <mxCell id="1eltRr7qgs7_-D9prCkm-32" value="Reverse a Reservations" style="rounded=1;whiteSpace=wrap;html=1;verticalAlign=top;" parent="1" vertex="1">
          <mxGeometry x="320" y="1300" width="120" height="60" as="geometry" />
        </mxCell>
        <mxCell id="1eltRr7qgs7_-D9prCkm-37" value="&lt;font style=&quot;font-size: 24px;&quot;&gt;Use-case Diagrams&lt;/font&gt;" style="text;html=1;align=center;verticalAlign=middle;whiteSpace=wrap;rounded=0;" parent="1" vertex="1">
          <mxGeometry x="95" y="10" width="355" height="40" as="geometry" />
        </mxCell>
        <mxCell id="1eltRr7qgs7_-D9prCkm-38" value="&lt;font style=&quot;font-size: 24px;&quot;&gt;System Architecture - High level&lt;br&gt;&lt;/font&gt;" style="text;html=1;align=center;verticalAlign=middle;whiteSpace=wrap;rounded=0;" parent="1" vertex="1">
          <mxGeometry x="1090" y="10" width="355" height="40" as="geometry" />
        </mxCell>
        <mxCell id="1eltRr7qgs7_-D9prCkm-41" value="" style="rounded=0;orthogonalLoop=1;jettySize=auto;html=1;flowAnimation=1;exitX=1;exitY=0.25;exitDx=0;exitDy=0;fillColor=#d5e8d4;strokeColor=#82b366;" parent="1" source="1eltRr7qgs7_-D9prCkm-58" edge="1">
          <mxGeometry relative="1" as="geometry">
            <mxPoint x="1015" y="280" as="sourcePoint" />
            <mxPoint x="1275" y="279.7388059701492" as="targetPoint" />
          </mxGeometry>
        </mxCell>
        <mxCell id="1eltRr7qgs7_-D9prCkm-43" value="1.0&amp;nbsp; Reservation request" style="text;html=1;align=center;verticalAlign=middle;whiteSpace=wrap;rounded=0;rotation=0;" parent="1" vertex="1">
          <mxGeometry x="1045" y="250" width="130" height="30" as="geometry" />
        </mxCell>
        <mxCell id="1eltRr7qgs7_-D9prCkm-46" value="&lt;font size=&quot;1&quot;&gt;&lt;b&gt;&lt;font style=&quot;font-size: 24px;&quot;&gt;Reservation Service&lt;/font&gt;&lt;/b&gt;&lt;/font&gt;" style="text;html=1;align=center;verticalAlign=middle;whiteSpace=wrap;rounded=0;strokeWidth=6;" parent="1" vertex="1">
          <mxGeometry x="1615" y="130" width="240" height="30" as="geometry" />
        </mxCell>
        <mxCell id="1eltRr7qgs7_-D9prCkm-55" value="" style="edgeStyle=orthogonalEdgeStyle;rounded=0;orthogonalLoop=1;jettySize=auto;html=1;entryX=1;entryY=0.5;entryDx=0;entryDy=0;flowAnimation=1;exitX=0;exitY=0.25;exitDx=0;exitDy=0;fillColor=#ffe6cc;strokeColor=#d79b00;" parent="1" source="1eltRr7qgs7_-D9prCkm-52" target="1eltRr7qgs7_-D9prCkm-58" edge="1">
          <mxGeometry relative="1" as="geometry">
            <mxPoint x="1115" y="390" as="targetPoint" />
            <Array as="points">
              <mxPoint x="1055" y="450" />
              <mxPoint x="1055" y="318" />
            </Array>
          </mxGeometry>
        </mxCell>
        <mxCell id="1eltRr7qgs7_-D9prCkm-126" value="" style="edgeStyle=orthogonalEdgeStyle;rounded=0;orthogonalLoop=1;jettySize=auto;html=1;flowAnimation=0;entryX=0;entryY=0.5;entryDx=0;entryDy=0;fillColor=#f8cecc;strokeColor=#b85450;" parent="1" source="1eltRr7qgs7_-D9prCkm-52" target="1eltRr7qgs7_-D9prCkm-71" edge="1">
          <mxGeometry relative="1" as="geometry">
            <mxPoint x="1335" y="575" as="targetPoint" />
            <Array as="points" />
          </mxGeometry>
        </mxCell>
        <mxCell id="1eltRr7qgs7_-D9prCkm-52" value="&lt;div&gt;Messaging Service (SMS/Email/Notification)&lt;br&gt;&lt;/div&gt;" style="rounded=0;whiteSpace=wrap;html=1;" parent="1" vertex="1">
          <mxGeometry x="1275" y="435" width="130" height="60" as="geometry" />
        </mxCell>
        <mxCell id="1eltRr7qgs7_-D9prCkm-62" value="&lt;div&gt;Reservation confirmation&lt;br&gt;&lt;/div&gt;" style="text;html=1;align=center;verticalAlign=middle;resizable=0;points=[];autosize=1;strokeColor=none;fillColor=none;" parent="1" vertex="1">
          <mxGeometry x="1075" y="405" width="160" height="30" as="geometry" />
        </mxCell>
        <mxCell id="1eltRr7qgs7_-D9prCkm-66" value="" style="group" parent="1" vertex="1" connectable="0">
          <mxGeometry x="910" y="460" width="95" height="180" as="geometry" />
        </mxCell>
        <mxCell id="1eltRr7qgs7_-D9prCkm-65" value="" style="rounded=0;whiteSpace=wrap;html=1;" parent="1eltRr7qgs7_-D9prCkm-66" vertex="1">
          <mxGeometry width="95" height="180" as="geometry" />
        </mxCell>
        <mxCell id="1eltRr7qgs7_-D9prCkm-63" value="Driver" style="shape=umlActor;verticalLabelPosition=bottom;verticalAlign=top;html=1;outlineConnect=0;" parent="1eltRr7qgs7_-D9prCkm-66" vertex="1">
          <mxGeometry x="35" y="10" width="30" height="60" as="geometry" />
        </mxCell>
        <mxCell id="1eltRr7qgs7_-D9prCkm-64" value="" style="shape=image;html=1;verticalAlign=top;verticalLabelPosition=bottom;labelBackgroundColor=#ffffff;imageAspect=0;aspect=fixed;image=https://cdn4.iconfinder.com/data/icons/transportation-and-vehicle/128/Transportation_And_Vehicle_3-04-128.png" parent="1eltRr7qgs7_-D9prCkm-66" vertex="1">
          <mxGeometry x="11" y="92" width="78" height="78" as="geometry" />
        </mxCell>
        <mxCell id="1eltRr7qgs7_-D9prCkm-67" value="" style="group" parent="1" vertex="1" connectable="0">
          <mxGeometry x="910" y="240" width="100" height="155" as="geometry" />
        </mxCell>
        <mxCell id="1eltRr7qgs7_-D9prCkm-58" value="" style="rounded=0;whiteSpace=wrap;html=1;" parent="1eltRr7qgs7_-D9prCkm-67" vertex="1">
          <mxGeometry width="100" height="155" as="geometry" />
        </mxCell>
        <mxCell id="1eltRr7qgs7_-D9prCkm-39" value="Passenger" style="shape=umlActor;verticalLabelPosition=bottom;verticalAlign=top;html=1;outlineConnect=0;" parent="1eltRr7qgs7_-D9prCkm-67" vertex="1">
          <mxGeometry x="35" y="10" width="30" height="60" as="geometry" />
        </mxCell>
        <mxCell id="1eltRr7qgs7_-D9prCkm-56" value="" style="verticalLabelPosition=bottom;verticalAlign=top;html=1;shadow=0;dashed=0;strokeWidth=1;shape=mxgraph.android.phone2;strokeColor=#6c8ebf;fillColor=#dae8fc;" parent="1eltRr7qgs7_-D9prCkm-67" vertex="1">
          <mxGeometry x="53.84615384615381" y="100" width="23.076923076923077" height="45.5" as="geometry" />
        </mxCell>
        <mxCell id="1eltRr7qgs7_-D9prCkm-57" value="" style="verticalLabelPosition=bottom;sketch=0;aspect=fixed;html=1;verticalAlign=top;strokeColor=none;align=center;outlineConnect=0;shape=mxgraph.citrix.cell_phone;" parent="1eltRr7qgs7_-D9prCkm-67" vertex="1">
          <mxGeometry x="23.076923076923094" y="103.5" width="17.5" height="42" as="geometry" />
        </mxCell>
        <mxCell id="1eltRr7qgs7_-D9prCkm-68" value="" style="edgeStyle=orthogonalEdgeStyle;rounded=0;orthogonalLoop=1;jettySize=auto;html=1;entryX=1;entryY=0.5;entryDx=0;entryDy=0;flowAnimation=1;exitX=0;exitY=0.75;exitDx=0;exitDy=0;fillColor=#ffe6cc;strokeColor=#d79b00;" parent="1" source="1eltRr7qgs7_-D9prCkm-52" target="1eltRr7qgs7_-D9prCkm-65" edge="1">
          <mxGeometry relative="1" as="geometry">
            <mxPoint x="1235" y="450" as="sourcePoint" />
            <mxPoint x="1020" y="328" as="targetPoint" />
            <Array as="points">
              <mxPoint x="1055" y="480" />
              <mxPoint x="1055" y="550" />
            </Array>
          </mxGeometry>
        </mxCell>
        <mxCell id="1eltRr7qgs7_-D9prCkm-70" value="&lt;div&gt;Reservation alert&lt;br&gt;&lt;/div&gt;" style="text;html=1;align=center;verticalAlign=middle;resizable=0;points=[];autosize=1;strokeColor=none;fillColor=none;" parent="1" vertex="1">
          <mxGeometry x="1105" y="450" width="110" height="30" as="geometry" />
        </mxCell>
        <mxCell id="1eltRr7qgs7_-D9prCkm-71" value="Database" style="shape=datastore;whiteSpace=wrap;html=1;" parent="1" vertex="1">
          <mxGeometry x="1535" y="405" width="60" height="60" as="geometry" />
        </mxCell>
        <mxCell id="1eltRr7qgs7_-D9prCkm-120" value="" style="edgeStyle=orthogonalEdgeStyle;rounded=0;orthogonalLoop=1;jettySize=auto;html=1;flowAnimation=1;entryX=1;entryY=0.75;entryDx=0;entryDy=0;exitX=0.75;exitY=1;exitDx=0;exitDy=0;fillColor=#d5e8d4;strokeColor=#82b366;" parent="1" source="1eltRr7qgs7_-D9prCkm-72" target="1eltRr7qgs7_-D9prCkm-52" edge="1">
          <mxGeometry relative="1" as="geometry">
            <mxPoint x="1825" y="320" as="sourcePoint" />
            <mxPoint x="1396.0799999999997" y="472.48000000000013" as="targetPoint" />
            <Array as="points">
              <mxPoint x="1860" y="480" />
            </Array>
          </mxGeometry>
        </mxCell>
        <mxCell id="1eltRr7qgs7_-D9prCkm-135" value="" style="edgeStyle=orthogonalEdgeStyle;rounded=0;orthogonalLoop=1;jettySize=auto;html=1;entryX=1;entryY=0.3;entryDx=0;entryDy=0;flowAnimation=0;fillColor=#f8cecc;strokeColor=#b85450;startArrow=classic;startFill=1;shadow=0;" parent="1" source="1eltRr7qgs7_-D9prCkm-72" target="1eltRr7qgs7_-D9prCkm-71" edge="1">
          <mxGeometry relative="1" as="geometry">
            <mxPoint x="1835" y="396" as="targetPoint" />
            <Array as="points">
              <mxPoint x="1835" y="423" />
            </Array>
          </mxGeometry>
        </mxCell>
        <mxCell id="1eltRr7qgs7_-D9prCkm-137" value="" style="edgeStyle=orthogonalEdgeStyle;rounded=0;orthogonalLoop=1;jettySize=auto;html=1;entryX=-0.004;entryY=0.39;entryDx=0;entryDy=0;flowAnimation=1;entryPerimeter=0;" parent="1" source="1eltRr7qgs7_-D9prCkm-72" target="1eltRr7qgs7_-D9prCkm-133" edge="1">
          <mxGeometry relative="1" as="geometry">
            <mxPoint x="1835" y="176" as="targetPoint" />
            <Array as="points">
              <mxPoint x="1835" y="165" />
            </Array>
          </mxGeometry>
        </mxCell>
        <mxCell id="1eltRr7qgs7_-D9prCkm-72" value="" style="rounded=0;whiteSpace=wrap;html=1;" parent="1" vertex="1">
          <mxGeometry x="1785" y="210" width="130" height="152" as="geometry" />
        </mxCell>
        <mxCell id="1eltRr7qgs7_-D9prCkm-122" value="" style="edgeStyle=orthogonalEdgeStyle;rounded=0;orthogonalLoop=1;jettySize=auto;html=1;flowAnimation=0;exitX=0.5;exitY=1;exitDx=0;exitDy=0;entryX=0.5;entryY=0;entryDx=0;entryDy=0;fillColor=#f8cecc;strokeColor=#b85450;" parent="1" source="1eltRr7qgs7_-D9prCkm-108" target="1eltRr7qgs7_-D9prCkm-71" edge="1">
          <mxGeometry relative="1" as="geometry">
            <mxPoint x="1595" y="430" as="targetPoint" />
            <Array as="points">
              <mxPoint x="1320" y="390" />
              <mxPoint x="1565" y="390" />
            </Array>
          </mxGeometry>
        </mxCell>
        <mxCell id="1eltRr7qgs7_-D9prCkm-131" value="" style="edgeStyle=orthogonalEdgeStyle;rounded=0;orthogonalLoop=1;jettySize=auto;html=1;entryX=-0.011;entryY=0.446;entryDx=0;entryDy=0;entryPerimeter=0;flowAnimation=1;fillColor=#d5e8d4;strokeColor=#82b366;" parent="1" source="1eltRr7qgs7_-D9prCkm-108" target="1eltRr7qgs7_-D9prCkm-127" edge="1">
          <mxGeometry relative="1" as="geometry" />
        </mxCell>
        <mxCell id="1eltRr7qgs7_-D9prCkm-108" value="Validate Request" style="rounded=0;whiteSpace=wrap;html=1;" parent="1" vertex="1">
          <mxGeometry x="1275" y="255" width="90" height="45" as="geometry" />
        </mxCell>
        <mxCell id="1eltRr7qgs7_-D9prCkm-115" value="" style="edgeStyle=orthogonalEdgeStyle;rounded=0;orthogonalLoop=1;jettySize=auto;html=1;entryX=0;entryY=1;entryDx=0;entryDy=0;startArrow=classic;startFill=1;flowAnimation=1;fillColor=#d5e8d4;strokeColor=#82b366;" parent="1" source="1eltRr7qgs7_-D9prCkm-72" target="1eltRr7qgs7_-D9prCkm-109" edge="1">
          <mxGeometry relative="1" as="geometry">
            <mxPoint x="1985" y="286" as="targetPoint" />
            <Array as="points">
              <mxPoint x="2005" y="286" />
              <mxPoint x="2005" y="286" />
            </Array>
          </mxGeometry>
        </mxCell>
        <mxCell id="1eltRr7qgs7_-D9prCkm-116" value="Place a booking" style="text;html=1;align=center;verticalAlign=middle;whiteSpace=wrap;rounded=0;" parent="1" vertex="1">
          <mxGeometry x="1935" y="260" width="90" height="30" as="geometry" />
        </mxCell>
        <mxCell id="1eltRr7qgs7_-D9prCkm-117" value="" style="group" parent="1" vertex="1" connectable="0">
          <mxGeometry x="2045" y="246" width="180" height="120" as="geometry" />
        </mxCell>
        <mxCell id="1eltRr7qgs7_-D9prCkm-144" value="" style="rounded=0;whiteSpace=wrap;html=1;fillColor=#fff2cc;strokeColor=#d6b656;" parent="1eltRr7qgs7_-D9prCkm-117" vertex="1">
          <mxGeometry x="-10" y="-30" width="190" height="150" as="geometry" />
        </mxCell>
        <mxCell id="1eltRr7qgs7_-D9prCkm-109" value="" style="rounded=0;whiteSpace=wrap;html=1;" parent="1eltRr7qgs7_-D9prCkm-117" vertex="1">
          <mxGeometry width="120" height="40" as="geometry" />
        </mxCell>
        <mxCell id="1eltRr7qgs7_-D9prCkm-110" value="" style="rounded=0;whiteSpace=wrap;html=1;" parent="1eltRr7qgs7_-D9prCkm-117" vertex="1">
          <mxGeometry x="10" y="10" width="120" height="40" as="geometry" />
        </mxCell>
        <mxCell id="1eltRr7qgs7_-D9prCkm-111" value="" style="rounded=0;whiteSpace=wrap;html=1;" parent="1eltRr7qgs7_-D9prCkm-117" vertex="1">
          <mxGeometry x="20" y="20" width="120" height="40" as="geometry" />
        </mxCell>
        <mxCell id="1eltRr7qgs7_-D9prCkm-112" value="" style="rounded=0;whiteSpace=wrap;html=1;" parent="1eltRr7qgs7_-D9prCkm-117" vertex="1">
          <mxGeometry x="30" y="30" width="120" height="40" as="geometry" />
        </mxCell>
        <mxCell id="1eltRr7qgs7_-D9prCkm-113" value="Bus 0005" style="rounded=0;whiteSpace=wrap;html=1;" parent="1eltRr7qgs7_-D9prCkm-117" vertex="1">
          <mxGeometry x="40" y="40" width="120" height="40" as="geometry" />
        </mxCell>
        <mxCell id="1eltRr7qgs7_-D9prCkm-124" value="" style="edgeStyle=orthogonalEdgeStyle;rounded=0;orthogonalLoop=1;jettySize=auto;html=1;flowAnimation=0;fillColor=#f8cecc;strokeColor=#b85450;exitX=0.5;exitY=1;exitDx=0;exitDy=0;entryX=0.5;entryY=1;entryDx=0;entryDy=0;" parent="1" source="1eltRr7qgs7_-D9prCkm-144" target="1eltRr7qgs7_-D9prCkm-71" edge="1">
          <mxGeometry relative="1" as="geometry">
            <Array as="points">
              <mxPoint x="2130" y="530" />
              <mxPoint x="1565" y="530" />
            </Array>
          </mxGeometry>
        </mxCell>
        <mxCell id="1eltRr7qgs7_-D9prCkm-129" style="edgeStyle=orthogonalEdgeStyle;rounded=0;orthogonalLoop=1;jettySize=auto;html=1;exitX=0.5;exitY=1;exitDx=0;exitDy=0;" parent="1" edge="1">
          <mxGeometry relative="1" as="geometry">
            <mxPoint x="1599" y="390" as="sourcePoint" />
            <mxPoint x="1599" y="390" as="targetPoint" />
          </mxGeometry>
        </mxCell>
        <mxCell id="1eltRr7qgs7_-D9prCkm-104" value="" style="group;fillColor=default;fillStyle=hatch;" parent="1" vertex="1" connectable="0">
          <mxGeometry x="1445" y="220" width="281" height="150" as="geometry" />
        </mxCell>
        <mxCell id="1eltRr7qgs7_-D9prCkm-92" value="Queue" style="text;html=1;align=center;verticalAlign=middle;whiteSpace=wrap;rounded=0;" parent="1eltRr7qgs7_-D9prCkm-104" vertex="1">
          <mxGeometry x="100" width="60" height="30" as="geometry" />
        </mxCell>
        <mxCell id="1eltRr7qgs7_-D9prCkm-127" value="" style="rounded=0;whiteSpace=wrap;html=1;fillColor=#dae8fc;strokeColor=#6c8ebf;" parent="1eltRr7qgs7_-D9prCkm-104" vertex="1">
          <mxGeometry x="-39" y="-18" width="320" height="170" as="geometry" />
        </mxCell>
        <mxCell id="1eltRr7qgs7_-D9prCkm-106" value="" style="group" parent="1eltRr7qgs7_-D9prCkm-104" vertex="1" connectable="0">
          <mxGeometry x="-15.12" y="15" width="272.2413793103449" height="100" as="geometry" />
        </mxCell>
        <mxCell id="1eltRr7qgs7_-D9prCkm-75" value="" style="rounded=0;whiteSpace=wrap;html=1;container=0;" parent="1eltRr7qgs7_-D9prCkm-106" vertex="1">
          <mxGeometry x="51.206896551724185" width="172.24137931034483" height="100" as="geometry" />
        </mxCell>
        <mxCell id="1eltRr7qgs7_-D9prCkm-76" value="" style="rounded=0;whiteSpace=wrap;html=1;container=0;" parent="1eltRr7qgs7_-D9prCkm-106" vertex="1">
          <mxGeometry x="67.02999999999997" y="7.059999999999945" width="22.97" height="82.35" as="geometry" />
        </mxCell>
        <mxCell id="1eltRr7qgs7_-D9prCkm-77" value="" style="rounded=0;whiteSpace=wrap;html=1;container=0;" parent="1eltRr7qgs7_-D9prCkm-106" vertex="1">
          <mxGeometry x="110" y="7.059999999999945" width="22.21" height="82.35" as="geometry" />
        </mxCell>
        <mxCell id="1eltRr7qgs7_-D9prCkm-78" value="" style="rounded=0;whiteSpace=wrap;html=1;fillColor=#dae8fc;strokeColor=#6c8ebf;container=0;" parent="1eltRr7qgs7_-D9prCkm-106" vertex="1">
          <mxGeometry x="190" y="7.059999999999945" width="16.69" height="82.35" as="geometry" />
        </mxCell>
        <mxCell id="1eltRr7qgs7_-D9prCkm-79" value="" style="rounded=0;whiteSpace=wrap;html=1;container=0;" parent="1eltRr7qgs7_-D9prCkm-106" vertex="1">
          <mxGeometry x="151" y="7.059999999999945" width="19.45" height="82.35" as="geometry" />
        </mxCell>
        <mxCell id="1eltRr7qgs7_-D9prCkm-80" value="" style="shape=flexArrow;endArrow=classic;html=1;rounded=0;endWidth=9.06856584275939;endSize=4.179220779220779;width=4.086021505376344;" parent="1eltRr7qgs7_-D9prCkm-106" edge="1">
          <mxGeometry width="50" height="50" relative="1" as="geometry">
            <mxPoint y="44.117647058823536" as="sourcePoint" />
            <mxPoint x="37.24137931034488" y="44.117647058823536" as="targetPoint" />
            <Array as="points">
              <mxPoint x="18.620689655172328" y="44.117647058823536" />
            </Array>
          </mxGeometry>
        </mxCell>
        <mxCell id="1eltRr7qgs7_-D9prCkm-84" value="" style="shape=flexArrow;endArrow=classic;html=1;rounded=0;endWidth=9.588046362239911;endSize=4.007792207792208;width=4.086021505376344;" parent="1eltRr7qgs7_-D9prCkm-106" edge="1">
          <mxGeometry width="50" height="50" relative="1" as="geometry">
            <mxPoint y="20.00176470588235" as="sourcePoint" />
            <mxPoint x="37.24137931034488" y="20.00176470588235" as="targetPoint" />
            <Array as="points">
              <mxPoint x="18.620689655172328" y="20.00176470588235" />
            </Array>
          </mxGeometry>
        </mxCell>
        <mxCell id="1eltRr7qgs7_-D9prCkm-95" value="" style="shape=flexArrow;endArrow=classic;html=1;rounded=0;endWidth=9.06856584275939;endSize=4.179220779220779;width=4.086021505376344;" parent="1eltRr7qgs7_-D9prCkm-106" edge="1">
          <mxGeometry width="50" height="50" relative="1" as="geometry">
            <mxPoint y="89.14764705882351" as="sourcePoint" />
            <mxPoint x="37.24137931034488" y="89.14764705882351" as="targetPoint" />
            <Array as="points">
              <mxPoint x="18.620689655172328" y="89.14764705882351" />
            </Array>
          </mxGeometry>
        </mxCell>
        <mxCell id="1eltRr7qgs7_-D9prCkm-96" value="" style="shape=flexArrow;endArrow=classic;html=1;rounded=0;endWidth=9.588046362239911;endSize=4.007792207792208;width=4.086021505376344;" parent="1eltRr7qgs7_-D9prCkm-106" edge="1">
          <mxGeometry width="50" height="50" relative="1" as="geometry">
            <mxPoint y="65.03176470588232" as="sourcePoint" />
            <mxPoint x="37.24137931034488" y="65.03176470588232" as="targetPoint" />
            <Array as="points">
              <mxPoint x="18.620689655172328" y="65.03176470588232" />
            </Array>
          </mxGeometry>
        </mxCell>
        <mxCell id="1eltRr7qgs7_-D9prCkm-97" value="" style="shape=flexArrow;endArrow=classic;html=1;rounded=0;endWidth=9.06856584275939;endSize=4.179220779220779;width=4.086021505376344;" parent="1eltRr7qgs7_-D9prCkm-106" edge="1">
          <mxGeometry width="50" height="50" relative="1" as="geometry">
            <mxPoint x="235" y="37.64764705882351" as="sourcePoint" />
            <mxPoint x="272.2413793103449" y="37.64764705882351" as="targetPoint" />
            <Array as="points">
              <mxPoint x="253.62068965517233" y="37.64764705882351" />
            </Array>
          </mxGeometry>
        </mxCell>
        <mxCell id="1eltRr7qgs7_-D9prCkm-98" value="" style="shape=flexArrow;endArrow=classic;html=1;rounded=0;endWidth=9.588046362239911;endSize=4.007792207792208;width=4.086021505376344;" parent="1eltRr7qgs7_-D9prCkm-106" edge="1">
          <mxGeometry width="50" height="50" relative="1" as="geometry">
            <mxPoint x="235" y="13.531764705882324" as="sourcePoint" />
            <mxPoint x="272.2413793103449" y="13.531764705882324" as="targetPoint" />
            <Array as="points">
              <mxPoint x="253.62068965517233" y="13.531764705882324" />
            </Array>
          </mxGeometry>
        </mxCell>
        <mxCell id="1eltRr7qgs7_-D9prCkm-99" value="" style="shape=flexArrow;endArrow=classic;html=1;rounded=0;endWidth=9.06856584275939;endSize=4.179220779220779;width=4.086021505376344;" parent="1eltRr7qgs7_-D9prCkm-106" edge="1">
          <mxGeometry width="50" height="50" relative="1" as="geometry">
            <mxPoint x="235" y="82.67764705882348" as="sourcePoint" />
            <mxPoint x="272.2413793103449" y="82.67764705882348" as="targetPoint" />
            <Array as="points">
              <mxPoint x="253.62068965517233" y="82.67764705882348" />
            </Array>
          </mxGeometry>
        </mxCell>
        <mxCell id="1eltRr7qgs7_-D9prCkm-100" value="" style="shape=flexArrow;endArrow=classic;html=1;rounded=0;endWidth=9.588046362239911;endSize=4.007792207792208;width=4.086021505376344;" parent="1eltRr7qgs7_-D9prCkm-106" edge="1">
          <mxGeometry width="50" height="50" relative="1" as="geometry">
            <mxPoint x="235" y="58.5617647058823" as="sourcePoint" />
            <mxPoint x="272.2413793103449" y="58.5617647058823" as="targetPoint" />
            <Array as="points">
              <mxPoint x="253.62068965517233" y="58.5617647058823" />
            </Array>
          </mxGeometry>
        </mxCell>
        <mxCell id="1eltRr7qgs7_-D9prCkm-101" value="" style="shape=flexArrow;endArrow=classic;html=1;rounded=0;endWidth=9.588046362239911;endSize=1.9090909090909092;width=4.363636363636363;" parent="1eltRr7qgs7_-D9prCkm-106" edge="1">
          <mxGeometry width="50" height="50" relative="1" as="geometry">
            <mxPoint x="90.57999999999993" y="48.08000000000004" as="sourcePoint" />
            <mxPoint x="109.27137931034486" y="48.08176470588239" as="targetPoint" />
            <Array as="points">
              <mxPoint x="90.6506896551723" y="48.08176470588239" />
            </Array>
          </mxGeometry>
        </mxCell>
        <mxCell id="1eltRr7qgs7_-D9prCkm-102" value="" style="shape=flexArrow;endArrow=classic;html=1;rounded=0;endWidth=9.588046362239911;endSize=1.9090909090909092;width=4.363636363636363;" parent="1eltRr7qgs7_-D9prCkm-106" edge="1">
          <mxGeometry width="50" height="50" relative="1" as="geometry">
            <mxPoint x="132.21000000000004" y="48.08000000000004" as="sourcePoint" />
            <mxPoint x="150.90137931034496" y="48.08176470588239" as="targetPoint" />
            <Array as="points">
              <mxPoint x="132.2806896551724" y="48.08176470588239" />
            </Array>
          </mxGeometry>
        </mxCell>
        <mxCell id="1eltRr7qgs7_-D9prCkm-103" value="" style="shape=flexArrow;endArrow=classic;html=1;rounded=0;endWidth=9.588046362239911;endSize=1.9090909090909092;width=4.363636363636363;" parent="1eltRr7qgs7_-D9prCkm-106" edge="1">
          <mxGeometry width="50" height="50" relative="1" as="geometry">
            <mxPoint x="170.45000000000005" y="48.08000000000004" as="sourcePoint" />
            <mxPoint x="189.14137931034497" y="48.08176470588239" as="targetPoint" />
            <Array as="points">
              <mxPoint x="170.52068965517242" y="48.08176470588239" />
            </Array>
          </mxGeometry>
        </mxCell>
        <mxCell id="1eltRr7qgs7_-D9prCkm-132" value="" style="edgeStyle=orthogonalEdgeStyle;rounded=0;orthogonalLoop=1;jettySize=auto;html=1;flowAnimation=1;fillColor=#d5e8d4;strokeColor=#82b366;" parent="1" source="1eltRr7qgs7_-D9prCkm-127" target="1eltRr7qgs7_-D9prCkm-72" edge="1">
          <mxGeometry relative="1" as="geometry" />
        </mxCell>
        <mxCell id="1eltRr7qgs7_-D9prCkm-139" value="" style="edgeStyle=orthogonalEdgeStyle;rounded=0;orthogonalLoop=1;jettySize=auto;html=1;entryX=0.675;entryY=0.017;entryDx=0;entryDy=0;entryPerimeter=0;exitX=-0.002;exitY=0.678;exitDx=0;exitDy=0;exitPerimeter=0;fillColor=#ffe6cc;strokeColor=#d79b00;flowAnimation=1;" parent="1" source="1eltRr7qgs7_-D9prCkm-133" target="1eltRr7qgs7_-D9prCkm-72" edge="1">
          <mxGeometry relative="1" as="geometry">
            <mxPoint x="2385" y="210" as="sourcePoint" />
            <mxPoint x="2500" y="290" as="targetPoint" />
            <Array as="points">
              <mxPoint x="2395" y="191" />
              <mxPoint x="1873" y="190" />
            </Array>
          </mxGeometry>
        </mxCell>
        <mxCell id="1eltRr7qgs7_-D9prCkm-133" value="Payment Service" style="rounded=0;whiteSpace=wrap;html=1;" parent="1" vertex="1">
          <mxGeometry x="2340" y="130" width="210" height="90" as="geometry" />
        </mxCell>
        <mxCell id="1eltRr7qgs7_-D9prCkm-140" value="2.0 Payment request" style="text;html=1;align=center;verticalAlign=middle;whiteSpace=wrap;rounded=0;" parent="1" vertex="1">
          <mxGeometry x="2095" y="140" width="120" height="30" as="geometry" />
        </mxCell>
        <mxCell id="1eltRr7qgs7_-D9prCkm-141" value="Payment response" style="text;html=1;align=center;verticalAlign=middle;whiteSpace=wrap;rounded=0;" parent="1" vertex="1">
          <mxGeometry x="2095" y="190" width="120" height="30" as="geometry" />
        </mxCell>
        <mxCell id="1eltRr7qgs7_-D9prCkm-142" value="Message request" style="text;html=1;align=center;verticalAlign=middle;whiteSpace=wrap;rounded=0;" parent="1" vertex="1">
          <mxGeometry x="1745" y="480" width="120" height="30" as="geometry" />
        </mxCell>
        <mxCell id="1eltRr7qgs7_-D9prCkm-146" value="&lt;b&gt;Booking Actions&lt;/b&gt;" style="rounded=0;whiteSpace=wrap;html=1;strokeColor=none;" parent="1" vertex="1">
          <mxGeometry x="1800" y="214" width="100" height="20" as="geometry" />
        </mxCell>
        <mxCell id="1eltRr7qgs7_-D9prCkm-148" value="Update a Booking " style="rounded=0;whiteSpace=wrap;html=1;" parent="1" vertex="1">
          <mxGeometry x="1800" y="288" width="100" height="20" as="geometry" />
        </mxCell>
        <mxCell id="1eltRr7qgs7_-D9prCkm-149" value="Refund request" style="rounded=0;whiteSpace=wrap;html=1;" parent="1" vertex="1">
          <mxGeometry x="1800" y="313" width="100" height="20" as="geometry" />
        </mxCell>
        <mxCell id="1eltRr7qgs7_-D9prCkm-150" value="Cancel a Booking " style="rounded=0;whiteSpace=wrap;html=1;" parent="1" vertex="1">
          <mxGeometry x="1800" y="264" width="100" height="20" as="geometry" />
        </mxCell>
        <mxCell id="1eltRr7qgs7_-D9prCkm-151" value="Create a Booking " style="rounded=0;whiteSpace=wrap;html=1;" parent="1" vertex="1">
          <mxGeometry x="1800" y="239" width="100" height="20" as="geometry" />
        </mxCell>
        <mxCell id="1eltRr7qgs7_-D9prCkm-168" value="" style="group" parent="1" vertex="1" connectable="0">
          <mxGeometry x="2205" y="665.91" width="90" height="94.09" as="geometry" />
        </mxCell>
        <mxCell id="1eltRr7qgs7_-D9prCkm-161" value="" style="ellipse;whiteSpace=wrap;html=1;aspect=fixed;fillColor=#e1d5e7;strokeColor=#9673a6;container=0;" parent="1eltRr7qgs7_-D9prCkm-168" vertex="1">
          <mxGeometry width="89.99999999999991" height="89.99999999999991" as="geometry" />
        </mxCell>
        <mxCell id="1eltRr7qgs7_-D9prCkm-160" value="" style="ellipse;whiteSpace=wrap;html=1;aspect=fixed;fillColor=#f8cecc;strokeColor=#b85450;container=0;" parent="1eltRr7qgs7_-D9prCkm-168" vertex="1">
          <mxGeometry x="1.7522227269777386" y="1.6608787072490265" width="86.65909533389569" height="86.65909533389569" as="geometry" />
        </mxCell>
        <mxCell id="1eltRr7qgs7_-D9prCkm-159" value="" style="ellipse;whiteSpace=wrap;html=1;aspect=fixed;fillColor=#dae8fc;strokeColor=#6c8ebf;container=0;" parent="1eltRr7qgs7_-D9prCkm-168" vertex="1">
          <mxGeometry x="2.3362969693036515" y="3.224058667012767" width="80.49127133493405" height="80.49127133493405" as="geometry" />
        </mxCell>
        <mxCell id="1eltRr7qgs7_-D9prCkm-158" value="" style="rounded=0;whiteSpace=wrap;html=1;rotation=90;fillColor=#fff2cc;strokeColor=#d6b656;container=0;" parent="1eltRr7qgs7_-D9prCkm-168" vertex="1">
          <mxGeometry x="35.71029917580624" y="34.18845544811474" width="5.840742423259129" height="31.318554740735927" as="geometry" />
        </mxCell>
        <mxCell id="1eltRr7qgs7_-D9prCkm-155" value="" style="rounded=0;whiteSpace=wrap;html=1;rotation=25;fillColor=#fff2cc;strokeColor=#d6b656;container=0;" parent="1eltRr7qgs7_-D9prCkm-168" vertex="1">
          <mxGeometry x="22.778895450710603" y="15.650118112791219" width="5.840742423259129" height="54.95554546044518" as="geometry" />
        </mxCell>
        <mxCell id="1eltRr7qgs7_-D9prCkm-156" value="" style="rounded=0;whiteSpace=wrap;html=1;rotation=-30;fillColor=#fff2cc;strokeColor=#d6b656;container=0;" parent="1eltRr7qgs7_-D9prCkm-168" vertex="1">
          <mxGeometry x="42.38626776559159" y="14.770829385424133" width="5.753131286910242" height="42.18754039846842" as="geometry" />
        </mxCell>
        <mxCell id="1eltRr7qgs7_-D9prCkm-157" value="" style="rounded=0;whiteSpace=wrap;html=1;rotation=15;fillColor=#fff2cc;strokeColor=#d6b656;container=0;" parent="1eltRr7qgs7_-D9prCkm-168" vertex="1">
          <mxGeometry x="55.510415990654735" y="16.62710558764359" width="5.840742423259129" height="64.11480303718605" as="geometry" />
        </mxCell>
        <mxCell id="35sJI7Oatwk3KKDrjz3o-1" value="" style="endArrow=none;html=1;rounded=0;" edge="1" parent="1">
          <mxGeometry width="50" height="50" relative="1" as="geometry">
            <mxPoint x="850" y="1100" as="sourcePoint" />
            <mxPoint x="2730" y="1100" as="targetPoint" />
          </mxGeometry>
        </mxCell>
        <mxCell id="35sJI7Oatwk3KKDrjz3o-2" value="" style="endArrow=none;html=1;rounded=0;" edge="1" parent="1">
          <mxGeometry width="50" height="50" relative="1" as="geometry">
            <mxPoint x="848" y="2180" as="sourcePoint" />
            <mxPoint x="848" y="80" as="targetPoint" />
          </mxGeometry>
        </mxCell>
        <mxCell id="35sJI7Oatwk3KKDrjz3o-9" value="" style="edgeStyle=orthogonalEdgeStyle;rounded=0;orthogonalLoop=1;jettySize=auto;html=1;" edge="1" parent="1" source="35sJI7Oatwk3KKDrjz3o-3" target="35sJI7Oatwk3KKDrjz3o-8">
          <mxGeometry relative="1" as="geometry" />
        </mxCell>
        <mxCell id="35sJI7Oatwk3KKDrjz3o-3" value="Start" style="strokeWidth=2;html=1;shape=mxgraph.flowchart.terminator;whiteSpace=wrap;" vertex="1" parent="1">
          <mxGeometry x="970" y="1230" width="100" height="60" as="geometry" />
        </mxCell>
        <mxCell id="35sJI7Oatwk3KKDrjz3o-49" style="edgeStyle=orthogonalEdgeStyle;rounded=0;orthogonalLoop=1;jettySize=auto;html=1;exitX=0.5;exitY=0;exitDx=0;exitDy=0;" edge="1" parent="1" source="35sJI7Oatwk3KKDrjz3o-5">
          <mxGeometry relative="1" as="geometry">
            <mxPoint x="1830.000000000001" y="1130.0000000000005" as="targetPoint" />
          </mxGeometry>
        </mxCell>
        <mxCell id="35sJI7Oatwk3KKDrjz3o-5" value="&lt;font style=&quot;font-size: 32px;&quot;&gt;Payment&lt;/font&gt;" style="text;html=1;align=center;verticalAlign=middle;whiteSpace=wrap;rounded=0;" vertex="1" parent="1">
          <mxGeometry x="1462.5" y="1120" width="685" height="40" as="geometry" />
        </mxCell>
        <mxCell id="35sJI7Oatwk3KKDrjz3o-12" value="" style="edgeStyle=orthogonalEdgeStyle;rounded=0;orthogonalLoop=1;jettySize=auto;html=1;" edge="1" parent="1" source="35sJI7Oatwk3KKDrjz3o-8" target="35sJI7Oatwk3KKDrjz3o-11">
          <mxGeometry relative="1" as="geometry" />
        </mxCell>
        <mxCell id="35sJI7Oatwk3KKDrjz3o-8" value="Temporary assign seats update the version of that seats" style="whiteSpace=wrap;html=1;strokeWidth=2;" vertex="1" parent="1">
          <mxGeometry x="1140" y="1230" width="120" height="60" as="geometry" />
        </mxCell>
        <mxCell id="35sJI7Oatwk3KKDrjz3o-14" value="" style="edgeStyle=orthogonalEdgeStyle;rounded=0;orthogonalLoop=1;jettySize=auto;html=1;entryX=0;entryY=0.5;entryDx=0;entryDy=0;" edge="1" parent="1" source="35sJI7Oatwk3KKDrjz3o-11" target="35sJI7Oatwk3KKDrjz3o-23">
          <mxGeometry relative="1" as="geometry">
            <mxPoint x="1490" y="1260" as="targetPoint" />
          </mxGeometry>
        </mxCell>
        <mxCell id="35sJI7Oatwk3KKDrjz3o-11" value="Send Payment request barclay" style="whiteSpace=wrap;html=1;strokeWidth=2;" vertex="1" parent="1">
          <mxGeometry x="1325" y="1230" width="120" height="60" as="geometry" />
        </mxCell>
        <mxCell id="35sJI7Oatwk3KKDrjz3o-16" value="" style="edgeStyle=orthogonalEdgeStyle;rounded=0;orthogonalLoop=1;jettySize=auto;html=1;exitX=1;exitY=0.5;exitDx=0;exitDy=0;" edge="1" parent="1" source="35sJI7Oatwk3KKDrjz3o-23" target="35sJI7Oatwk3KKDrjz3o-15">
          <mxGeometry relative="1" as="geometry">
            <mxPoint x="1660" y="1260" as="sourcePoint" />
          </mxGeometry>
        </mxCell>
        <mxCell id="35sJI7Oatwk3KKDrjz3o-18" value="" style="edgeStyle=orthogonalEdgeStyle;rounded=0;orthogonalLoop=1;jettySize=auto;html=1;" edge="1" parent="1" source="35sJI7Oatwk3KKDrjz3o-15" target="35sJI7Oatwk3KKDrjz3o-17">
          <mxGeometry relative="1" as="geometry" />
        </mxCell>
        <mxCell id="35sJI7Oatwk3KKDrjz3o-15" value="redirect to payment UI in an page/ifram" style="whiteSpace=wrap;html=1;strokeWidth=2;" vertex="1" parent="1">
          <mxGeometry x="1750" y="1230" width="120" height="60" as="geometry" />
        </mxCell>
        <mxCell id="35sJI7Oatwk3KKDrjz3o-20" value="" style="edgeStyle=orthogonalEdgeStyle;rounded=0;orthogonalLoop=1;jettySize=auto;html=1;" edge="1" parent="1" source="35sJI7Oatwk3KKDrjz3o-17" target="35sJI7Oatwk3KKDrjz3o-19">
          <mxGeometry relative="1" as="geometry" />
        </mxCell>
        <mxCell id="35sJI7Oatwk3KKDrjz3o-17" value="Display payment UI/ifram" style="whiteSpace=wrap;html=1;strokeWidth=2;" vertex="1" parent="1">
          <mxGeometry x="1940" y="1230" width="120" height="60" as="geometry" />
        </mxCell>
        <mxCell id="35sJI7Oatwk3KKDrjz3o-22" value="" style="edgeStyle=orthogonalEdgeStyle;rounded=0;orthogonalLoop=1;jettySize=auto;html=1;entryX=0;entryY=0.5;entryDx=0;entryDy=0;exitX=1;exitY=0.5;exitDx=0;exitDy=0;" edge="1" parent="1" source="35sJI7Oatwk3KKDrjz3o-19" target="35sJI7Oatwk3KKDrjz3o-24">
          <mxGeometry relative="1" as="geometry">
            <mxPoint x="2400" y="1260" as="targetPoint" />
            <Array as="points">
              <mxPoint x="2420" y="1260" />
              <mxPoint x="2420" y="1330" />
              <mxPoint x="990" y="1330" />
              <mxPoint x="990" y="1447" />
            </Array>
          </mxGeometry>
        </mxCell>
        <mxCell id="35sJI7Oatwk3KKDrjz3o-19" value="&lt;div&gt;Fill form information for payment&lt;/div&gt;&lt;div&gt;&lt;br&gt;&lt;/div&gt;and submit the form" style="shape=step;perimeter=stepPerimeter;whiteSpace=wrap;html=1;fixedSize=1;strokeWidth=2;" vertex="1" parent="1">
          <mxGeometry x="2140" y="1220" width="160" height="80" as="geometry" />
        </mxCell>
        <mxCell id="35sJI7Oatwk3KKDrjz3o-23" value="Payment service check and giving payment URL for capturing data (UI)" style="shape=process;whiteSpace=wrap;html=1;backgroundOutline=1;fillColor=#dae8fc;strokeColor=#6c8ebf;" vertex="1" parent="1">
          <mxGeometry x="1495.5" y="1230" width="180" height="60" as="geometry" />
        </mxCell>
        <mxCell id="35sJI7Oatwk3KKDrjz3o-26" value="" style="edgeStyle=orthogonalEdgeStyle;rounded=0;orthogonalLoop=1;jettySize=auto;html=1;" edge="1" parent="1" source="35sJI7Oatwk3KKDrjz3o-24" target="35sJI7Oatwk3KKDrjz3o-25">
          <mxGeometry relative="1" as="geometry" />
        </mxCell>
        <mxCell id="35sJI7Oatwk3KKDrjz3o-24" value="Payment capture and confirm and wait for pre-authorize" style="shape=process;whiteSpace=wrap;html=1;backgroundOutline=1;fillColor=#dae8fc;strokeColor=#6c8ebf;" vertex="1" parent="1">
          <mxGeometry x="1010" y="1417" width="180" height="60" as="geometry" />
        </mxCell>
        <mxCell id="35sJI7Oatwk3KKDrjz3o-28" value="" style="edgeStyle=orthogonalEdgeStyle;rounded=0;orthogonalLoop=1;jettySize=auto;html=1;" edge="1" parent="1" source="35sJI7Oatwk3KKDrjz3o-25" target="35sJI7Oatwk3KKDrjz3o-27">
          <mxGeometry relative="1" as="geometry" />
        </mxCell>
        <mxCell id="35sJI7Oatwk3KKDrjz3o-25" value="Check available seats again and perform the pre-authorization" style="whiteSpace=wrap;html=1;strokeWidth=2;" vertex="1" parent="1">
          <mxGeometry x="1260" y="1417" width="140" height="60" as="geometry" />
        </mxCell>
        <mxCell id="35sJI7Oatwk3KKDrjz3o-32" value="" style="edgeStyle=orthogonalEdgeStyle;rounded=0;orthogonalLoop=1;jettySize=auto;html=1;" edge="1" parent="1" source="35sJI7Oatwk3KKDrjz3o-27" target="35sJI7Oatwk3KKDrjz3o-31">
          <mxGeometry relative="1" as="geometry" />
        </mxCell>
        <mxCell id="35sJI7Oatwk3KKDrjz3o-27" value="payment finalize after pre-authorizing" style="shape=process;whiteSpace=wrap;html=1;backgroundOutline=1;fillColor=#dae8fc;strokeColor=#6c8ebf;" vertex="1" parent="1">
          <mxGeometry x="1470" y="1417" width="180" height="60" as="geometry" />
        </mxCell>
        <mxCell id="35sJI7Oatwk3KKDrjz3o-36" value="" style="edgeStyle=orthogonalEdgeStyle;rounded=0;orthogonalLoop=1;jettySize=auto;html=1;" edge="1" parent="1" source="35sJI7Oatwk3KKDrjz3o-31" target="35sJI7Oatwk3KKDrjz3o-35">
          <mxGeometry relative="1" as="geometry" />
        </mxCell>
        <mxCell id="35sJI7Oatwk3KKDrjz3o-31" value="Check available seats again and perform the pre-authorization" style="whiteSpace=wrap;html=1;strokeWidth=2;" vertex="1" parent="1">
          <mxGeometry x="1740" y="1417" width="140" height="60" as="geometry" />
        </mxCell>
        <mxCell id="35sJI7Oatwk3KKDrjz3o-33" value="Run locked process and it will stop concurrent bookings" style="shape=callout;whiteSpace=wrap;html=1;perimeter=calloutPerimeter;position2=0.28;size=20;position=0.4;" vertex="1" parent="1">
          <mxGeometry x="1785" y="1347" width="125" height="70" as="geometry" />
        </mxCell>
        <mxCell id="35sJI7Oatwk3KKDrjz3o-38" value="" style="edgeStyle=orthogonalEdgeStyle;rounded=0;orthogonalLoop=1;jettySize=auto;html=1;" edge="1" parent="1" source="35sJI7Oatwk3KKDrjz3o-35" target="35sJI7Oatwk3KKDrjz3o-37">
          <mxGeometry relative="1" as="geometry" />
        </mxCell>
        <mxCell id="35sJI7Oatwk3KKDrjz3o-35" value="perform the transaction and give the response" style="whiteSpace=wrap;html=1;strokeWidth=2;" vertex="1" parent="1">
          <mxGeometry x="1960" y="1417" width="140" height="60" as="geometry" />
        </mxCell>
        <mxCell id="35sJI7Oatwk3KKDrjz3o-40" value="" style="edgeStyle=orthogonalEdgeStyle;rounded=0;orthogonalLoop=1;jettySize=auto;html=1;" edge="1" parent="1" source="35sJI7Oatwk3KKDrjz3o-37" target="35sJI7Oatwk3KKDrjz3o-39">
          <mxGeometry relative="1" as="geometry" />
        </mxCell>
        <mxCell id="35sJI7Oatwk3KKDrjz3o-42" value="No" style="edgeLabel;html=1;align=center;verticalAlign=middle;resizable=0;points=[];" vertex="1" connectable="0" parent="35sJI7Oatwk3KKDrjz3o-40">
          <mxGeometry x="-0.3579" y="4" relative="1" as="geometry">
            <mxPoint as="offset" />
          </mxGeometry>
        </mxCell>
        <mxCell id="35sJI7Oatwk3KKDrjz3o-44" value="" style="edgeStyle=orthogonalEdgeStyle;rounded=0;orthogonalLoop=1;jettySize=auto;html=1;" edge="1" parent="1" source="35sJI7Oatwk3KKDrjz3o-37" target="35sJI7Oatwk3KKDrjz3o-43">
          <mxGeometry relative="1" as="geometry" />
        </mxCell>
        <mxCell id="35sJI7Oatwk3KKDrjz3o-37" value="Success" style="rhombus;whiteSpace=wrap;html=1;strokeWidth=2;" vertex="1" parent="1">
          <mxGeometry x="2210" y="1407" width="80" height="80" as="geometry" />
        </mxCell>
        <mxCell id="35sJI7Oatwk3KKDrjz3o-39" value="Fail the booking by giving an error message" style="whiteSpace=wrap;html=1;strokeWidth=2;" vertex="1" parent="1">
          <mxGeometry x="2350" y="1417" width="120" height="60" as="geometry" />
        </mxCell>
        <mxCell id="35sJI7Oatwk3KKDrjz3o-46" value="" style="edgeStyle=orthogonalEdgeStyle;rounded=0;orthogonalLoop=1;jettySize=auto;html=1;entryX=0;entryY=0.5;entryDx=0;entryDy=0;entryPerimeter=0;" edge="1" parent="1" source="35sJI7Oatwk3KKDrjz3o-43" target="35sJI7Oatwk3KKDrjz3o-47">
          <mxGeometry relative="1" as="geometry">
            <mxPoint x="2250" y="1717" as="targetPoint" />
          </mxGeometry>
        </mxCell>
        <mxCell id="35sJI7Oatwk3KKDrjz3o-43" value="Update the seats as booked in DB" style="whiteSpace=wrap;html=1;strokeWidth=2;" vertex="1" parent="1">
          <mxGeometry x="2190" y="1577" width="120" height="60" as="geometry" />
        </mxCell>
        <mxCell id="35sJI7Oatwk3KKDrjz3o-47" value="End" style="strokeWidth=2;html=1;shape=mxgraph.flowchart.terminator;whiteSpace=wrap;" vertex="1" parent="1">
          <mxGeometry x="2370" y="1577" width="100" height="60" as="geometry" />
        </mxCell>
        <mxCell id="35sJI7Oatwk3KKDrjz3o-48" value="" style="endArrow=none;html=1;rounded=0;" edge="1" parent="1">
          <mxGeometry width="50" height="50" relative="1" as="geometry">
            <mxPoint x="850" y="1780" as="sourcePoint" />
            <mxPoint x="2730" y="1780" as="targetPoint" />
          </mxGeometry>
        </mxCell>
      </root>
    </mxGraphModel>
  </diagram>
</mxfile>
